<svg xmlns="http://www.w3.org/2000/svg" viewBox="0 0 800 800"><g><rect x="-0.5" y="-0.5" width="800" height="800"/></g><g><path d="M507.31,685.8V643c0-14.8-5.4-20.79-17.1-20.79h-17.4V586.26h17.4c11.7,0,17.1-6,17.1-20.79v-56.7c0-35.59,23.09-45.36,47.39-45.36h25.49v35.91H558.3c-8.4,0-10.2,3.78-10.2,10.71v60.8c0,22.68-11.7,30.55-27.89,33.39,16.19,2.83,27.89,10.71,27.89,33.39v46.93c0,6.93,1.8,10.71,10.2,10.71h21.89v35.91H554.7C530.4,731.16,507.31,721.4,507.31,685.8Z" style="fill:#ffde17"/><path d="M619.19,695.25h21.89c8.4,0,10.2-3.78,10.2-10.71V637.61c0-22.68,11.7-30.56,27.89-33.39-16.19-2.84-27.89-10.71-27.89-33.39V510c0-6.93-1.8-10.71-10.2-10.71H619.19V463.41h25.49c24.3,0,47.39,9.77,47.39,45.36v56.7c0,14.81,5.4,20.79,17.1,20.79h17.4v35.91h-17.4c-11.7,0-17.1,6-17.1,20.79V685.8c0,35.6-23.09,45.36-47.39,45.36H619.19Z" style="fill:#ffde17"/><rect width="400" height="400" style="fill:#49c5d3"/><rect x="400" width="400" height="400" style="fill:#fff"/></g></svg>
